Coordinates
version=1
nRows=17
nColumns=40
inDegrees=yes

Units are S.I. units (second, meters, Newtons, ...)
If the header above contains a line with 'inDegrees', this indicates whether rotational values are in degrees (yes) or radians (no).

endheader
time	pelvis_tilt	pelvis_list	pelvis_rotation	pelvis_tx	pelvis_ty	pelvis_tz	hip_flexion_r	hip_adduction_r	hip_rotation_r	knee_angle_r	knee_angle_r_beta	ankle_angle_r	subtalar_angle_r	mtp_angle_r	hip_flexion_l	hip_adduction_l	hip_rotation_l	knee_angle_l	knee_angle_l_beta	ankle_angle_l	subtalar_angle_l	mtp_angle_l	lumbar_extension	lumbar_bending	lumbar_rotation	arm_flex_r	arm_add_r	arm_rot_r	elbow_flex_r	pro_sup_r	wrist_flex_r	wrist_dev_r	arm_flex_l	arm_add_l	arm_rot_l	elbow_flex_l	pro_sup_l	wrist_flex_l	wrist_dev_l
      1.98500000	    -20.20040174	      2.21266339	     -5.66363536	      0.14813973	      0.77900457	     -1.17973769	     56.88528174	    -31.97216467	    -16.44137728	     55.46301950	      0.96801230	      8.21649238	      3.69339647	      0.00000000	     49.64312359	    -39.22909922	    -29.75029748	     55.12944531	      0.96219034	      8.78110423	     13.23925528	      0.00000000	     -6.72542846	     -1.47811917	      2.19102053	     44.99984389	    -15.00000106	     44.99984389	     75.00017585	     45.00000026	      0.00000000	      0.00000000	     44.99984389	    -15.00000106	     44.99984389	     75.00017585	     45.00000026	      0.00000000	      0.00000000
      1.99000000	    -20.08385719	      2.32559583	     -5.60049071	      0.14937641	      0.78378119	     -1.18001967	     55.90918167	    -31.83044946	    -16.81377089	     54.16866299	      0.94542152	      7.69223242	      3.61464166	      0.00000000	     48.57619635	    -38.61840165	    -30.44542180	     53.83293748	      0.93956201	      8.29467924	     13.16973014	      0.00000000	     -6.57893976	     -1.55055136	      2.10974806	     44.99984407	    -15.00000105	     44.99984407	     75.00017585	     45.00000026	      0.00000000	      0.00000000	     44.99984407	    -15.00000105	     44.99984407	     75.00017585	     45.00000026	      0.00000000	      0.00000000
      1.99500000	    -20.20538500	      2.40202382	     -5.55208800	      0.15036689	      0.78772158	     -1.18021681	     55.25951855	    -31.62539222	    -17.13686412	     52.99761794	      0.92498293	      7.22951906	      3.65719622	      0.00000000	     47.91811623	    -38.09175619	    -30.92566309	     52.65846159	      0.91906353	      7.83404769	     13.20754721	      0.00000000	     -6.11115620	     -1.56323249	      2.05362625	     44.99984415	    -15.00000105	     44.99984415	     75.00017585	     45.00000026	      0.00000000	      0.00000000	     44.99984415	    -15.00000105	     44.99984415	     75.00017585	     45.00000026	      0.00000000	      0.00000000
      2.00000000	    -19.95800759	      2.49863865	     -5.48929608	      0.15169232	      0.79270756	     -1.18051032	     54.10554491	    -31.47702890	    -17.55705283	     51.65168136	      0.90149190	      6.64556326	      3.54294534	      0.00000000	     46.70112078	    -37.42853498	    -31.56531255	     51.26942076	      0.89482020	      7.31692863	     13.09565467	      0.00000000	     -6.16389272	     -1.64861577	      1.94508811	     44.99984427	    -15.00000105	     44.99984427	     75.00017585	     45.00000026	      0.00000000	      0.00000000	     44.99984427	    -15.00000105	     44.99984427	     75.00017585	     45.00000026	      0.00000000	      0.00000000
      2.00500000	    -19.48217576	      2.60901008	     -5.40888150	      0.15349960	      0.79813021	     -1.18084571	     52.61568785	    -31.43857127	    -18.12283636	     50.25208337	      0.87706431	      6.19480424	      3.68706912	      0.00000000	     45.13347887	    -36.76212615	    -32.43298343	     49.82704064	      0.86964592	      6.86189179	     13.24489144	      0.00000000	     -6.44543173	     -1.79785107	      1.77397753	     44.99984447	    -15.00000104	     44.99984447	     75.00017585	     45.00000026	      0.00000000	      0.00000000	     44.99984447	    -15.00000104	     44.99984447	     75.00017585	     45.00000026	      0.00000000	      0.00000000
      2.01000000	    -19.25246094	      2.70042174	     -5.34486218	      0.15495075	      0.80272545	     -1.18115785	     51.50451446	    -31.33136682	    -18.57974736	     48.97873764	      0.85484024	      5.75173451	      3.86194957	      0.00000000	     43.98935391	    -36.15308932	    -33.09610677	     48.51113264	      0.84667899	      6.40853459	     13.40211128	      0.00000000	     -6.43543459	     -1.88651728	      1.62688632	     44.99984471	    -15.00000104	     44.99984471	     75.00017585	     45.00000026	      0.00000000	      0.00000000	     44.99984471	    -15.00000104	     44.99984471	     75.00017585	     45.00000026	      0.00000000	      0.00000000
      2.01500000	    -19.14621001	      2.78148133	     -5.27762397	      0.15620440	      0.80698546	     -1.18145865	     50.54478198	    -31.14932034	    -18.95537983	     47.68199723	      0.83220785	      5.20299587	      3.74641704	      0.00000000	     43.06815380	    -35.51435253	    -33.57219917	     47.20840867	      0.82394217	      5.90607795	     13.28193617	      0.00000000	     -6.27864245	     -1.92647631	      1.53749704	     44.99984487	    -15.00000104	     44.99984487	     75.00017585	     45.00000026	      0.00000000	      0.00000000	     44.99984487	    -15.00000104	     44.99984487	     75.00017585	     45.00000026	      0.00000000	      0.00000000
      2.02000000	    -18.83296024	      2.84506232	     -5.19948608	      0.15781033	      0.81162130	     -1.18179691	     49.28270484	    -31.03770453	    -19.49100730	     46.35952086	      0.80912628	      4.75807295	      3.98530747	      0.00000000	     41.84345097	    -34.89059799	    -34.20297893	     45.84218218	      0.80009702	      5.44084514	     13.49540805	      0.00000000	     -6.36647649	     -2.00188799	      1.36718090	     44.99984516	    -15.00000103	     44.99984516	     75.00017585	     45.00000026	      0.00000000	      0.00000000	     44.99984516	    -15.00000103	     44.99984516	     75.00017585	     45.00000026	      0.00000000	      0.00000000
      2.02500000	    -18.73979739	      2.90940523	     -5.14034738	      0.15905210	      0.81564900	     -1.18209879	     48.34808391	    -30.81847200	    -19.83668382	     45.06937026	      0.78660890	      4.19206364	      3.84324986	      0.00000000	     40.97634905	    -34.25878272	    -34.60778878	     44.53186539	      0.77722767	      4.92635654	     13.35687196	      0.00000000	     -6.19019988	     -2.02650616	      1.28533730	     44.99984531	    -15.00000103	     44.99984531	     75.00017585	     45.00000026	      0.00000000	      0.00000000	     44.99984531	    -15.00000103	     44.99984531	     75.00017585	     45.00000026	      0.00000000	      0.00000000
      2.03000000	    -18.47044415	      2.95549726	     -5.05849305	      0.16059713	      0.81997818	     -1.18245964	     47.14761326	    -30.66618849	    -20.33897113	     43.75182747	      0.76361344	      3.71452007	      3.97982108	      0.00000000	     39.86914514	    -33.62959064	    -35.12084936	     43.17941341	      0.75362293	      4.44007431	     13.47603003	      0.00000000	     -6.22579123	     -2.05444487	      1.13487164	     44.99984553	    -15.00000102	     44.99984553	     75.00017585	     45.00000026	      0.00000000	      0.00000000	     44.99984553	    -15.00000102	     44.99984553	     75.00017585	     45.00000026	      0.00000000	      0.00000000
      2.03500000	    -18.28318103	      3.00311169	     -4.98939671	      0.16197222	      0.82399935	     -1.18277183	     46.07845892	    -30.46222225	    -20.76406926	     42.43017254	      0.74054621	      3.17825085	      3.95051053	      0.00000000	     38.90597478	    -32.99942844	    -35.52757508	     41.84283286	      0.73029520	      3.93345147	     13.43531355	      0.00000000	     -6.16502107	     -2.07673768	      1.01864053	     44.99984570	    -15.00000102	     44.99984570	     75.00017585	     45.00000026	      0.00000000	      0.00000000	     44.99984570	    -15.00000102	     44.99984570	     75.00017585	     45.00000026	      0.00000000	      0.00000000
      2.04000000	    -18.04914622	      3.03080928	     -4.91260521	      0.16347265	      0.82803849	     -1.18312247	     44.93490189	    -30.26385144	    -21.23308717	     41.12194845	      0.71771340	      2.66793562	      4.02852614	      0.00000000	     37.89156931	    -32.37643737	    -35.93680731	     40.49739772	      0.70681293	      3.43329281	     13.49326098	      0.00000000	     -6.16783644	     -2.09274018	      0.88255717	     44.99984589	    -15.00000101	     44.99984589	     75.00017585	     45.00000026	      0.00000000	      0.00000000	     44.99984589	    -15.00000101	     44.99984589	     75.00017585	     45.00000026	      0.00000000	      0.00000000
      2.04500000	    -17.84274335	      3.06179869	     -4.84062527	      0.16490157	      0.83188326	     -1.18344946	     43.84600039	    -30.04872824	    -21.66894046	     39.81501020	      0.69490302	      2.13568553	      4.03361107	      0.00000000	     36.93592271	    -31.75648684	    -36.30244997	     39.16619962	      0.68357914	      2.92699220	     13.48032578	      0.00000000	     -6.13494899	     -2.10333743	      0.76178854	     44.99984604	    -15.00000101	     44.99984604	     75.00017585	     45.00000026	      0.00000000	      0.00000000	     44.99984604	    -15.00000101	     44.99984604	     75.00017585	     45.00000026	      0.00000000	      0.00000000
      2.05000000	    -17.55394234	      3.05962478	     -4.73010942	      0.16646565	      0.83576109	     -1.18387112	     42.62006984	    -29.87008690	    -22.22398566	     38.51437260	      0.67220261	      1.67185586	      4.23415736	      0.00000000	     35.91179910	    -31.14989292	    -36.66072845	     37.83481986	      0.66034218	      2.43572294	     13.63671040	      0.00000000	     -6.19889901	     -2.07976113	      0.56995956	     44.99984628	    -15.00000101	     44.99984628	     75.00017585	     45.00000026	      0.00000000	      0.00000000	     44.99984628	    -15.00000101	     44.99984628	     75.00017585	     45.00000026	      0.00000000	      0.00000000
      2.05500000	    -17.32905437	      3.01625671	     -4.63815149	      0.16796477	      0.83939436	     -1.18426131	     41.46274883	    -29.60890360	    -22.75433763	     37.20187520	      0.64929521	      1.15352227	      4.30064026	      0.00000000	     34.99466539	    -30.60441511	    -36.95362548	     36.53998415	      0.63774303	      1.94838983	     13.71854787	      0.00000000	     -6.18935750	     -2.02637497	      0.37458761	     44.99984559	    -15.00000101	     44.99984559	     75.00017585	     45.00000026	      0.00000000	      0.00000000	     44.99984559	    -15.00000101	     44.99984559	     75.00017585	     45.00000026	      0.00000000	      0.00000000
      2.06000000	    -17.07045063	      3.00915133	     -4.52757538	      0.16940235	      0.84297129	     -1.18467957	     40.31146727	    -29.39062423	    -23.23315457	     35.93035975	      0.62710308	      0.65215797	      4.37190222	      0.00000000	     34.06434901	    -30.00387897	    -37.22910513	     35.24523129	      0.61514533	      1.44376530	     13.70634722	      0.00000000	     -6.24574782	     -1.97757440	      0.20939196	     44.99984495	    -15.00000102	     44.99984495	     75.00017585	     45.00000026	      0.00000000	      0.00000000	     44.99984495	    -15.00000102	     44.99984495	     75.00017585	     45.00000026	      0.00000000	      0.00000000
      2.06500000	    -16.84696229	      2.98573174	     -4.42276445	      0.17092386	      0.84634782	     -1.18503958	     39.18403784	    -29.14773443	    -23.75291257	     34.63669891	      0.60452444	      0.13826142	      4.46136480	      0.00000000	     33.16568793	    -29.41861144	    -37.43606049	     33.92633114	      0.59212618	      0.94662778	     13.76274142	      0.00000000	     -6.21675840	     -1.94525788	      0.04183557	     44.99984451	    -15.00000102	     44.99984451	     75.00017585	     45.00000026	      0.00000000	      0.00000000	     44.99984451	    -15.00000102	     44.99984451	     75.00017585	     45.00000026	      0.00000000	      0.00000000
